# xmcd
#
# Track frame offsets:
#	150
#	16683
#	30761
#	46744
#	64913
#	92823
#	110295
#	128133
#	142497
#	159906
#	177932
#
# Disc length: 2617 seconds
#
# Revision: 1
# Processed by: cddbd v1.4PL0 Copyright (c) Steve Scherf et al.
# Submitted via: audiograbber 1.81.01
#
DISCID=850a370b
DTITLE=Rascal Flatts - Rascal Flatts
DYEAR=2000
DGENRE=Country
TTITLE0=Prayin For Daylight
TTITLE1=This Everyday Love
TTITLE2=While You Loved Me
TTITLE3=Some Say
TTITLE4=See Me Through
TTITLE5=One Good Love
TTITLE6=It's Not Just Me
TTITLE7=Waiting All My Life
TTITLE8=From Time To Time
TTITLE9=Long Slow Beautiful Dance
TTITLE10=I'm Movin On
EXTD=
EXTT0=
EXTT1=
EXTT2=
EXTT3=
EXTT4=
EXTT5=
EXTT6=
EXTT7=
EXTT8=
EXTT9=
EXTT10=
PLAYORDER=
